<svg width="23" height="22" viewBox="0 0 23 22" fill="none" xmlns="http://www.w3.org/2000/svg">
<g clip-path="url(#clip0_1_924)">
<path d="M20.4481 0H1.70088C0.802832 0 0.0766602 0.708984 0.0766602 1.58555V20.4102C0.0766602 21.2867 0.802832 22 1.70088 22H20.4481C21.3462 22 22.0767 21.2867 22.0767 20.4145V1.58555C22.0767 0.708984 21.3462 0 20.4481 0ZM6.60361 18.7473H3.33799V8.2457H6.60361V18.7473ZM4.9708 6.81484C3.92236 6.81484 3.07588 5.96836 3.07588 4.92422C3.07588 3.88008 3.92236 3.03359 4.9708 3.03359C6.01494 3.03359 6.86143 3.88008 6.86143 4.92422C6.86143 5.96406 6.01494 6.81484 4.9708 6.81484ZM18.8239 18.7473H15.5626V13.6426C15.5626 12.4266 15.5411 10.8582 13.8653 10.8582C12.1681 10.8582 11.9103 12.1859 11.9103 13.5566V18.7473H8.65322V8.2457H11.7813V9.68086H11.8243C12.2583 8.85586 13.3239 7.98359 14.9095 7.98359C18.2138 7.98359 18.8239 10.1578 18.8239 12.9852V18.7473Z" fill="white"/>
</g>
<defs>
<clipPath id="clip0_1_924">
<rect width="22" height="22" fill="white" transform="translate(0.0766602)"/>
</clipPath>
</defs>
</svg>
